<svg xmlns="http://www.w3.org/2000/svg" viewBox="0 0 64 64" width="64" height="64" role="img" aria-label="Rechenzentrum im Aufbau (Phase 2 von 6)">
  <defs>
    <clipPath id="fill-gw"><rect x="12" y="39.67" width="40" height="21.33"/></clipPath>
  </defs>
  <!-- White outer outline (groundwater overlay) -->
  <rect x="15" y="5" width="34" height="52" rx="3.5" fill="none" stroke="#ffffff" stroke-width="6" stroke-linejoin="round"/>
  <rect x="18" y="57" width="5" height="3" rx="1" fill="#ffffff" stroke="#ffffff" stroke-width="3"/>
  <rect x="41" y="57" width="5" height="3" rx="1" fill="#ffffff" stroke="#ffffff" stroke-width="3"/>
  <g fill="none" stroke="#fd2c8d" stroke-linejoin="round">
    <rect x="15" y="5" width="34" height="52" rx="3.5" stroke-width="2.4" stroke-dasharray="4 3"/>
    <rect x="19" y="9" width="26" height="9" rx="1.5" stroke-width="1.6" stroke-dasharray="3 2.5" opacity="0.8"/>
    <rect x="19" y="20" width="26" height="9" rx="1.5" stroke-width="1.6" stroke-dasharray="3 2.5" opacity="0.8"/>
    <rect x="19" y="31" width="26" height="9" rx="1.5" stroke-width="1.6" stroke-dasharray="3 2.5" opacity="0.8"/>
    <rect x="19" y="42" width="26" height="11" rx="1.5" stroke-width="1.6" stroke-dasharray="3 2.5" opacity="0.8"/>
  </g>
  <g clip-path="url(#fill-gw)">
    <rect x="15" y="5" width="34" height="52" rx="3.5" fill="#f7da06" stroke="#1a1a1a" stroke-width="2.5"/>
    <g fill="#1a1a1a">
      <rect x="19" y="9" width="26" height="9" rx="1.5"/>
      <rect x="19" y="20" width="26" height="9" rx="1.5"/>
      <rect x="19" y="31" width="26" height="9" rx="1.5"/>
      <rect x="19" y="42" width="26" height="11" rx="1.5"/>
    </g>
    <g fill="#fd2c8d">
      <circle cx="23" cy="13.5" r="1.7"/>
      <circle cx="28" cy="13.5" r="1.7"/>
      <circle cx="23" cy="24.5" r="1.7"/>
      <circle cx="28" cy="24.5" r="1.7"/>
      <circle cx="23" cy="35.5" r="1.7"/>
      <circle cx="28" cy="35.5" r="1.7"/>
    </g>
    <g fill="#ffffff" opacity="0.85">
      <rect x="34" y="12" width="8" height="1.6" rx="0.8"/>
      <rect x="34" y="15" width="8" height="1.6" rx="0.8"/>
      <rect x="34" y="23" width="8" height="1.6" rx="0.8"/>
      <rect x="34" y="26" width="8" height="1.6" rx="0.8"/>
      <rect x="34" y="34" width="8" height="1.6" rx="0.8"/>
      <rect x="34" y="37" width="8" height="1.6" rx="0.8"/>
    </g>
    <g fill="#1a1a1a">
      <rect x="18" y="57" width="5" height="3" rx="1"/>
      <rect x="41" y="57" width="5" height="3" rx="1"/>
    </g>
  </g>
  <line x1="16" y1="39.67" x2="48" y2="39.67" stroke="#fd2c8d" stroke-width="2" stroke-linecap="round"/>
</svg>
